<svg xmlns:dc="http://purl.org/dc/elements/1.1/" xmlns:cc="http://creativecommons.org/ns#" xmlns:rdf="http://www.w3.org/1999/02/22-rdf-syntax-ns#" xmlns:svg="http://www.w3.org/2000/svg" xmlns="http://www.w3.org/2000/svg" viewBox="0 0 1298.7467 598.64001" height="598.64001" width="1298.7467" xml:space="preserve" id="svg2" version="1.1" xmlns:xlink="http://www.w3.org/1999/xlink">
 <metadata id="metadata8">
  <rdf:RDF>
   <cc:Work rdf:about="">
    <dc:format>
     image/svg+xml
    </dc:format>
    <dc:type rdf:resource="http://purl.org/dc/dcmitype/StillImage">
    </dc:type>
   </cc:Work>
  </rdf:RDF>
 </metadata>
 <defs id="defs6">
 </defs>
 <g transform="matrix(1.3333333,0,0,-1.3333333,0,598.64)" id="g10">
  <g transform="scale(0.1)" id="g12">
   <path id="path14" style="fill:#ef4e24;fill-opacity:1;fill-rule:nonzero;stroke:none" d="m 7869.38,501.66 c 1,61 27,110 71,154 184,183 368,367 552,551 112,112 111,222 -2,334 -181,181 -363,363 -545,544 -104,104 -104,218 1,323 376,376 752,751 1128,1127 110,110 224,109 335,-2 86,-86 172,-172 258,-258 97,-98 98,-216 1,-313 -185,-185 -370,-370 -555,-555 -107,-107 -107,-219 1,-327 183,-183 366,-365 548,-547 104,-104 103,-220 -1,-324 -375,-374 -750,-749 -1126,-1121.9998 -30,-30 -66,-58 -105,-73 -76,-29 -149,-11.00004 -207,46 -100,97.9998 -199,196.9998 -297,295.9998 -38,40 -57,89 -57,146">
   </path>
   <path id="path16" style="fill:#ef4e24;fill-opacity:1;fill-rule:nonzero;stroke:none" d="m 5247.38,3117.66 c -2,63 25,112 69,155 320,319 639,638 959,957 64,64 127,128 191,191 93,92 213,92 306,0 187,-185 373,-372 559,-558 105,-105 218,-106 324,-1 183,182 366,365 548,547 107,107 221,107 327,1 87,-87 175,-174 262,-261 99,-100 99,-217 0,-316 -379,-379 -759,-759 -1139,-1138 -102,-102 -218,-101 -320,0 -183,182 -366,365 -549,547 -110,110 -221,110 -331,1 -182,-181 -363,-363 -545,-544 -107,-107 -221,-107 -327,-1 -90,89 -179,179 -269,268 -42,43 -67,92 -65,152">
   </path>
   <path id="path18" style="fill:#ef4e24;fill-opacity:1;fill-rule:nonzero;stroke:none" d="m 5247.38,1372.66 c -1,58 21,107 62,147 387,386 773,773 1160,1158 89,89 210,87 299,-1 385,-383 769,-767 1153,-1151 95,-95 94,-214 0,-310 -91,-92 -183,-184 -276,-275 -93,-92 -213,-91 -306,2 -186,184 -370,369 -556,554 -109,108 -222,108 -331,0 -182,-181 -363,-363 -545,-544 -107,-107 -221,-107 -328,-1 -90,89 -179,179 -269,268 -40,43 -64,92 -63,153">
   </path>
   <path id="path20" style="fill:#ef4e24;fill-opacity:1;fill-rule:nonzero;stroke:none" d="m 3996.38,875.66 c -63,-2 -114,26 -158,70 -194,195 -389,389 -584,583 -185,185 -370,370 -555,555 -104,104 -103,219 1,323 88,88 177,177 265,265 96,95 214,96 310,2 186,-184 370,-369 556,-554 109,-109 220,-108 330,1 182,181 364,362 545,543 107,107 220,107 327,0 87,-87 175,-174 262,-261 99,-100 98,-216 -2,-316 -381,-380 -762,-760 -1142,-1141 -42,-44 -91,-71 -155,-70">
   </path>
   <path id="path22" style="fill:#ef4e24;fill-opacity:1;fill-rule:nonzero;stroke:none" d="m 1870.38,2241.66 c 1,-49 -17,-97 -55,-135 -102,-103 -203,-207 -308,-307 -79,-74 -195,-70 -276,5 -43,40 -83,82 -124,123 -342.001,341 -684.001,683 -1025.0011,1024 -109,109 -110,222 -2,330 376.0001,376 752.0001,751 1128.0011,1127 65,66 139,98 230,67 30,-10 60,-30 83,-52 96,-92 190,-187 284,-282 92,-93 91,-212 -2,-306 -182,-183 -362,-369 -549,-546 -108,-102 -111,-241 2,-347 186,-176 364,-361 546,-542 41,-43 68,-92 68,-159">
   </path>
   <path id="path24" style="fill:#ef4e24;fill-opacity:1;fill-rule:nonzero;stroke:none" d="m 1749.38,3121.66 c 0,62 29,112 74,156 279,277 557,555 835,833 101,101 202,203 304,304 100,100 217,100 317,1 380,-379 760,-758 1139,-1137 103,-103 104,-218 2,-320 -88,-89 -177,-177 -265,-265 -100,-99 -217,-100 -316,0 -184,183 -368,367 -552,551 -108,107 -220,108 -327,1 -184,-184 -368,-367 -552,-551 -61,-61 -132,-92 -217,-64 -33,11 -67,32 -92,56 -97,93 -192,190 -287,285 -42,41 -64,90 -63,150">
   </path>
  </g>
 </g>
</svg>